<svg width="32" height="32" viewBox="0 0 32 32" fill="none" xmlns="http://www.w3.org/2000/svg">
<g clip-path="url(#clip0_225_7729)">
<path d="M26.2031 23.1238H5.79688C5.48511 23.1238 5.19385 22.9697 5.01831 22.7122C2.32593 18.7639 2.11938 11.1689 2.10376 10.0415C2.10278 9.99731 2.10229 9.95264 2.10229 9.9082C2.10229 9.38843 2.52319 8.9668 3.04297 8.96582H3.04492C3.56372 8.96582 3.98535 9.3855 3.9873 9.90454C3.9873 9.91089 3.98755 9.96655 3.98975 10.0652C4.07275 12.7466 6.28003 14.9021 8.9812 14.9021C11.7349 14.9021 13.9751 12.6619 13.9751 9.9082C13.9751 9.3877 14.3972 8.96582 14.9175 8.96582H17.0823C17.6028 8.96582 18.0247 9.3877 18.0247 9.9082C18.0247 12.6619 20.2651 14.9021 23.0188 14.9021C25.7224 14.9021 27.9312 12.7427 28.0105 10.0579C28.0122 9.96362 28.0127 9.91089 28.0127 9.90479C28.0146 9.3855 28.436 8.96582 28.9551 8.96582H28.9568C29.4766 8.9668 29.8975 9.38843 29.8975 9.9082C29.8975 9.95288 29.897 9.99731 29.8962 10.0417C29.8804 11.1689 29.6738 18.7642 26.9817 22.7124C26.8062 22.9697 26.5146 23.1238 26.2031 23.1238Z" fill="#FFCC6B"/>
<path d="M28.9568 8.96582C28.9563 8.96582 28.9558 8.96582 28.9551 8.96582C28.4363 8.96582 28.0146 9.3855 28.0127 9.90454C28.0127 9.91089 28.0125 9.96362 28.0105 10.0579C27.9312 12.7424 25.7224 14.9021 23.0188 14.9021C20.2651 14.9021 18.0249 12.6619 18.0249 9.9082C18.0249 9.3877 17.6028 8.96582 17.0825 8.96582H16.0002V23.1235H26.2031C26.5149 23.1235 26.8062 22.9695 26.9817 22.7122C29.6741 18.7639 29.8806 11.1687 29.8962 10.0415C29.8972 9.99731 29.8977 9.95264 29.8977 9.9082C29.8975 9.38843 29.4766 8.9668 28.9568 8.96582Z" fill="#CAA257"/>
<path d="M16 5.75C14.321 5.75 12.9551 7.11597 12.9551 8.79492C12.9551 10.4739 14.321 11.8396 16 11.8396C17.679 11.8396 19.0449 10.4739 19.0449 8.79492C19.0449 7.11597 17.679 5.75 16 5.75Z" fill="#CAA257"/>
<path d="M16.0002 5.75V11.8398C17.6792 11.8396 19.0449 10.4739 19.0449 8.79492C19.0449 7.11597 17.679 5.75024 16.0002 5.75Z" fill="#CAA257"/>
<path d="M3.04492 8.09961C1.36597 8.09961 0 9.46558 0 11.1445C0 12.8235 1.36597 14.1895 3.04492 14.1895C4.72388 14.1895 6.0896 12.8235 6.0896 11.1445C6.0896 9.46558 4.72388 8.09961 3.04492 8.09961Z" fill="#CAA257"/>
<path d="M28.9551 8.09961C27.2761 8.09961 25.9104 9.46558 25.9104 11.1445C25.9104 12.8232 27.2761 14.1892 28.9551 14.1892C30.634 14.1892 32 12.8232 32 11.1445C32 9.46558 30.634 8.09961 28.9551 8.09961Z" fill="#CAA257"/>
<path d="M26.2031 26.2151H5.79688C5.27637 26.2151 4.85449 25.7932 4.85449 25.2727V22.4624H27.1455V25.2727C27.1455 25.7932 26.7236 26.2151 26.2031 26.2151Z" fill="#CAA257"/>
<path d="M16.0002 26.2151H26.2031C26.7236 26.2151 27.1455 25.7932 27.1455 25.2727V22.4624H16.0002V26.2151Z" fill="#CAA257"/>
</g>
<defs>
<clipPath id="clip0_225_7729">
<rect width="32" height="32" fill="white"/>
</clipPath>
</defs>
</svg>
