<svg width="32" height="30" viewBox="0 0 32 30" fill="none" xmlns="http://www.w3.org/2000/svg">
<path d="M14.8478 17.9479C14.815 18.8947 14.0734 19.6621 13.1212 19.7322C12.2345 19.797 11.3392 19.8305 10.461 19.8305C9.58292 19.8305 8.68842 19.797 7.80167 19.7322C6.84942 19.6621 6.10698 18.8947 6.07504 17.9479C5.9331 13.8037 5.9331 9.60562 6.07429 5.47075C6.10704 4.52318 6.84873 3.75662 7.80092 3.68643C8.6876 3.62168 9.58292 3.58818 10.461 3.58818C11.3392 3.58818 12.2345 3.62168 13.122 3.68643C14.0734 3.75662 14.8159 4.52325 14.8486 5.47075C14.8697 6.08218 14.8868 6.69437 14.9016 7.30812H18.4695C18.4547 6.65306 18.436 6.00031 18.4134 5.34831C18.319 2.57662 16.1565 0.332184 13.3832 0.128621C12.4092 0.0568711 11.4265 0.0209961 10.461 0.0209961C9.49635 0.0209961 8.51292 0.0568711 7.53967 0.128621C4.76648 0.332184 2.60385 2.57662 2.50873 5.34831C2.36448 9.56431 2.36448 13.8442 2.50948 18.0696C2.60385 20.842 4.76642 23.0857 7.53967 23.29C8.51292 23.3617 9.49635 23.3976 10.461 23.3976C11.4265 23.3976 12.4092 23.3617 13.3832 23.29C16.1557 23.0857 18.3182 20.842 18.4134 18.0696C18.4251 17.7209 18.436 17.3716 18.4462 17.0214H14.8767C14.8681 17.3311 14.8587 17.6399 14.8478 17.9479Z" fill="#665E66"/>
<path d="M13.122 3.68638C12.5363 3.64351 11.9468 3.6162 11.3611 3.60138C11.6621 3.59357 11.9631 3.58813 12.2611 3.58813C13.1392 3.58813 14.0345 3.62163 14.9212 3.68638C15.8735 3.75657 16.6151 4.5232 16.6478 5.4707C16.6689 6.08213 16.686 6.69432 16.7008 7.30807H14.9016C14.8868 6.69432 14.8696 6.08213 14.8486 5.4707C14.8159 4.5232 14.0742 3.75657 13.122 3.68638Z" fill="#544F57"/>
<path d="M9.33914 23.29C6.56633 23.0859 4.40376 20.8418 4.30895 18.0699C4.16439 13.8447 4.1642 9.56462 4.30845 5.34868C4.40339 2.57662 6.56601 0.332559 9.33901 0.128809C10.0117 0.0793711 10.6886 0.0479961 11.3613 0.0325586C11.0603 0.0256836 10.76 0.0209961 10.4616 0.0209961C9.49658 0.0209961 8.51351 0.0572461 7.53976 0.128809C4.76683 0.332621 2.60414 2.57662 2.5092 5.34868C2.36495 9.56468 2.36508 13.8447 2.5097 18.0699C2.60458 20.8418 4.76708 23.0859 7.53989 23.29C8.51345 23.3616 9.49645 23.3979 10.4616 23.3979C10.76 23.3979 11.0603 23.3932 11.3612 23.3863C10.6886 23.3709 10.0118 23.3394 9.33914 23.29Z" fill="#544F57"/>
<path d="M10.4612 27.6885C8.10016 27.6885 5.71916 27.62 3.34209 27.4841C1.63372 27.3865 0.267719 26.0272 0.159657 24.3195C-0.052906 20.9612 -0.053281 17.5914 0.158907 14.2389C0.266969 12.5312 1.63303 11.172 3.34128 11.0745C5.71622 10.9389 8.10028 10.8704 10.4612 10.8704C12.8222 10.8704 15.2063 10.9389 17.5812 11.0745C19.2895 11.172 20.6555 12.5312 20.7635 14.2389C20.9757 17.5914 20.9753 20.9612 20.7628 24.3195C20.6547 26.0272 19.2887 27.3865 17.5803 27.4841C15.2033 27.62 12.8223 27.6885 10.4612 27.6885Z" fill="#CAA257"/>
<path d="M4.15174 27.527C3.88149 27.5145 3.61124 27.4994 3.34193 27.4842C1.63399 27.387 0.267618 26.0277 0.15968 24.3197C-0.0526321 20.9609 -0.0535071 17.5914 0.158743 14.2387C0.26668 12.5317 1.63306 11.1724 3.34099 11.0743C3.61124 11.0591 3.88056 11.044 4.15081 11.0315C3.14743 11.6201 2.45531 12.6806 2.37774 13.9123C2.15118 17.4826 2.15212 21.0706 2.37862 24.6462C2.45624 25.8779 3.14837 26.9384 4.15174 27.527Z" fill="#A67211"/>
<path d="M29.2201 29.3283C22.9327 29.5634 16.6453 29.5634 10.3579 29.3283C9.31187 29.2892 8.44456 28.5137 8.27418 27.4809C7.97924 25.693 7.97924 23.9051 8.27418 22.1172C8.44456 21.0844 9.31187 20.309 10.3579 20.2698C16.6453 20.0347 22.9327 20.0347 29.2201 20.2698C30.2662 20.309 31.1336 21.0844 31.3039 22.1172C31.5988 23.9051 31.5988 25.693 31.3039 27.4809C31.1336 28.5137 30.2662 29.2892 29.2201 29.3283Z" fill="#F9F6F9"/>
<path d="M19.7892 29.9794C16.6322 29.9794 13.4752 29.9207 10.3403 29.8035C9.07804 29.7564 8.01173 28.812 7.80492 27.5582C7.50285 25.7272 7.50285 23.8706 7.80492 22.0396C8.01173 20.7857 9.07804 19.8414 10.3403 19.7942C16.6102 19.5598 22.9683 19.5598 29.238 19.7942C30.5003 19.8414 31.5666 20.7857 31.7734 22.0396C32.0755 23.8706 32.0755 25.7272 31.7734 27.5582C31.5666 28.812 30.5004 29.7564 29.238 29.8035C26.1031 29.9208 22.9462 29.9794 19.7892 29.9794ZM19.7892 20.5699C16.644 20.5699 13.499 20.6283 10.3759 20.745C9.56367 20.7754 8.87729 21.385 8.74373 22.1945C8.4586 23.9227 8.4586 25.6752 8.74373 27.4034C8.87729 28.2129 9.56367 28.8224 10.3759 28.8528C16.6222 29.0864 22.9564 29.0864 29.2025 28.8528C30.0147 28.8224 30.7012 28.2129 30.8347 27.4034C31.1198 25.6752 31.1198 23.9227 30.8347 22.1945C30.7012 21.385 30.0147 20.7754 29.2025 20.745C26.0794 20.6283 22.9342 20.5699 19.7892 20.5699Z" fill="#E2DFE2"/>
<path d="M14.1007 23.4773C13.9694 23.2498 13.6784 23.1718 13.4509 23.3032L12.2876 23.9748V22.6315C12.2876 22.3688 12.0746 22.1558 11.8118 22.1558C11.5491 22.1558 11.3361 22.3688 11.3361 22.6315V23.9748L10.1727 23.3031C9.94512 23.1717 9.65412 23.2498 9.52281 23.4773C9.39143 23.7048 9.46937 23.9958 9.69693 24.1271L10.8603 24.7988L9.69693 25.4705C9.46937 25.6019 9.39143 25.8928 9.52281 26.1204C9.61093 26.273 9.77081 26.3583 9.93525 26.3583C10.0159 26.3583 10.0977 26.3378 10.1727 26.2945L11.3361 25.6228V26.9661C11.3361 27.2289 11.5491 27.4419 11.8118 27.4419C12.0746 27.4419 12.2876 27.2289 12.2876 26.9661V25.6228L13.4509 26.2945C13.5258 26.3377 13.6076 26.3583 13.6883 26.3583C13.8527 26.3583 14.0126 26.2729 14.1007 26.1203C14.2321 25.8928 14.1542 25.6018 13.9266 25.4704L12.7632 24.7988L13.9266 24.1271C14.1542 23.9958 14.2321 23.7049 14.1007 23.4773Z" fill="#665E66"/>
<path d="M19.3359 23.4775C19.2045 23.2499 18.9135 23.172 18.686 23.3034L17.5227 23.9751V22.6318C17.5227 22.369 17.3097 22.156 17.0469 22.156C16.7842 22.156 16.5712 22.369 16.5712 22.6318V23.9751L15.4078 23.3034C15.1802 23.1719 14.8893 23.25 14.7579 23.4775C14.6265 23.7051 14.7045 23.996 14.932 24.1274L16.0954 24.7991L14.932 25.4708C14.7045 25.6021 14.6265 25.8931 14.7579 26.1206C14.846 26.2733 15.0059 26.3586 15.1704 26.3586C15.251 26.3586 15.3329 26.338 15.4078 26.2948L16.5712 25.6231V26.9664C16.5712 27.2291 16.7842 27.4421 17.0469 27.4421C17.3097 27.4421 17.5227 27.2291 17.5227 26.9664V25.6231L18.686 26.2948C18.761 26.338 18.8428 26.3586 18.9235 26.3586C19.0879 26.3586 19.2478 26.2732 19.3359 26.1206C19.4673 25.8931 19.3894 25.6021 19.1618 25.4708L17.9984 24.7991L19.1618 24.1274C19.3893 23.996 19.4673 23.7051 19.3359 23.4775Z" fill="#665E66"/>
<path d="M24.5708 23.4775C24.4394 23.2499 24.1484 23.172 23.9209 23.3034L22.7575 23.9751V22.6318C22.7575 22.369 22.5445 22.156 22.2818 22.156C22.019 22.156 21.806 22.369 21.806 22.6318V23.9751L20.6427 23.3034C20.4151 23.1719 20.1242 23.25 19.9928 23.4775C19.8614 23.7051 19.9393 23.996 20.1669 24.1274L21.3303 24.7991L20.1669 25.4708C19.9393 25.6021 19.8614 25.8931 19.9928 26.1206C20.0809 26.2733 20.2408 26.3586 20.4052 26.3586C20.4859 26.3586 20.5677 26.338 20.6427 26.2948L21.806 25.6231V26.9664C21.806 27.2291 22.019 27.4421 22.2818 27.4421C22.5445 27.4421 22.7575 27.2291 22.7575 26.9664V25.6231L23.9209 26.2948C23.9958 26.338 24.0777 26.3586 24.1583 26.3586C24.3227 26.3586 24.4827 26.2732 24.5708 26.1206C24.7022 25.8931 24.6242 25.6021 24.3967 25.4708L23.2333 24.7991L24.3967 24.1274C24.6242 23.996 24.7022 23.7051 24.5708 23.4775Z" fill="#665E66"/>
<path d="M29.6317 25.4706L28.4683 24.7989L29.6317 24.1272C29.8593 23.9958 29.9372 23.7049 29.8058 23.4773C29.6744 23.2498 29.3835 23.1718 29.1559 23.3032L27.9926 23.9748V22.6315C27.9926 22.3688 27.7796 22.1558 27.5169 22.1558C27.2541 22.1558 27.0411 22.3688 27.0411 22.6315V23.9748L25.8778 23.3031C25.6503 23.1717 25.3593 23.2498 25.2279 23.4773C25.0965 23.7048 25.1744 23.9958 25.402 24.1271L26.5654 24.7988L25.402 25.4705C25.1744 25.6019 25.0965 25.8928 25.2279 26.1204C25.316 26.273 25.4759 26.3583 25.6403 26.3583C25.721 26.3583 25.8028 26.3378 25.8778 26.2945L27.0411 25.6228V26.9661C27.0411 27.2289 27.2541 27.4419 27.5169 27.4419C27.7796 27.4419 27.9926 27.2289 27.9926 26.9661V25.6228L29.1559 26.2944C29.2309 26.3377 29.3127 26.3583 29.3934 26.3583C29.5578 26.3583 29.7177 26.2729 29.8058 26.1203C29.9372 25.8929 29.8593 25.6019 29.6317 25.4706Z" fill="#665E66"/>
<path d="M20.1581 8.29491C20.09 8.29491 20.0208 8.28022 19.955 8.2491C19.7175 8.13679 19.6161 7.85316 19.7284 7.6156L20.646 5.67554C20.7583 5.43804 21.0418 5.33647 21.2795 5.44891C21.517 5.56122 21.6185 5.84485 21.5061 6.08241L20.5885 8.02247C20.5073 8.19429 20.3364 8.29491 20.1581 8.29491Z" fill="#DD636E"/>
<path d="M23.024 11.8003C22.9558 11.8003 22.8866 11.7856 22.8209 11.7545L20.8808 10.8368C20.6433 10.7245 20.5418 10.4409 20.6542 10.2034C20.7665 9.96584 21.0501 9.86428 21.2876 9.97678L23.2277 10.8944C23.4652 11.0067 23.5667 11.2903 23.4543 11.5278C23.3731 11.6996 23.2022 11.8003 23.024 11.8003Z" fill="#DD636E"/>
<path d="M21.1573 9.39698C20.962 9.39698 20.7789 9.2758 20.7093 9.08136C20.6208 8.83398 20.7496 8.56173 20.997 8.47317L23.0177 7.75017C23.265 7.66148 23.5374 7.79048 23.6259 8.03786C23.7144 8.28523 23.5856 8.55748 23.3382 8.64605L21.3175 9.36905C21.2645 9.38798 21.2105 9.39698 21.1573 9.39698Z" fill="#DD636E"/>
</svg>
